<?xml version="1.0" encoding="UTF-8" standalone="no"?>
<svg width="24px" height="24px" viewBox="0 0 24 24" version="1.1" xmlns="http://www.w3.org/2000/svg" xmlns:xlink="http://www.w3.org/1999/xlink" xmlns:sketch="http://www.bohemiancoding.com/sketch/ns">
    <!-- Generator: Sketch 3.5.2 (25235) - http://www.bohemiancoding.com/sketch -->
    <title>bundles</title>
    <desc>Created with Sketch.</desc>
    <defs></defs>
    <g id="Page-1" stroke="none" stroke-width="1" fill="none" fill-rule="evenodd" sketch:type="MSPage">
        <g id="bundles" sketch:type="MSArtboardGroup" fill="#4E4E4E">
            <path d="M3.8125,1.5 L23.5,1.5 L23.5,22.1835938 C23.5,22.6914088 23.3242205,23.121092 22.9726562,23.4726562 C22.621092,23.8242205 22.1914088,24 21.6835938,24 L2.81640625,24 C2.30859121,24 1.87890801,23.8242205 1.52734375,23.4726562 C1.17577949,23.121092 1,22.6914088 1,22.1835938 L1,4.3125 L2.875,4.3125 L2.875,21.1875 L3.8125,21.1875 L3.8125,4.3125 L3.8125,2.4375 L3.8125,1.5 Z M6.625,4.3125 L6.625,5.25 L14.125,5.25 L14.125,4.3125 L6.625,4.3125 Z M6.625,13.6875 L6.625,14.625 L17.875,14.625 L17.875,13.6875 L6.625,13.6875 Z M20.6875,19.3125 L20.6875,18.375 L6.625,18.375 L6.625,19.3125 L20.6875,19.3125 Z M20.6875,9.9375 L20.6875,9 L6.625,9 L6.625,9.9375 L20.6875,9.9375 Z" id="" sketch:type="MSShapeGroup"></path>
        </g>
    </g>
</svg>