<?xml version="1.0" encoding="UTF-8" standalone="no"?>
<svg width="16px" height="16px" viewBox="0 0 16 16" version="1.1" xmlns="http://www.w3.org/2000/svg" xmlns:xlink="http://www.w3.org/1999/xlink">
    <!-- Generator: Sketch 3.7 (28169) - http://www.bohemiancoding.com/sketch -->
    <title>collection check</title>
    <desc>Created with Sketch.</desc>
    <defs></defs>
    <g id="Page-1" stroke="none" stroke-width="1" fill="none" fill-rule="evenodd">
        <g id="collection-check" fill="#ADB7BF">
            <path d="M8,0 C10.2051392,0 12.0897358,0.782043462 13.6538462,2.34615385 C15.2179565,3.91026423 16,5.79486077 16,8 C16,10.2051392 15.2179565,12.0897358 13.6538462,13.6538462 C12.0897358,15.2179565 10.2051392,16 8,16 C5.79486077,16 3.91026423,15.2179565 2.34615385,13.6538462 C0.782043462,12.0897358 0,10.2051392 0,8 C0,5.79486077 0.782043462,3.91026423 2.34615385,2.34615385 C3.91026423,0.782043462 5.79486077,0 8,0 L8,0 Z M6.84615385,10.8846154 L12,5.69230769 L11.3076923,5 L6.5,9.84615385 L4.69230769,8.03846154 L4,8.73076923 L6.15384615,10.8846154 C6.25641077,10.98718 6.37179423,11.0384615 6.5,11.0384615 C6.62820577,11.0384615 6.74358923,10.98718 6.84615385,10.8846154 L6.84615385,10.8846154 Z" id="ï¿"></path>
        </g>
    </g>
</svg>