<?xml version="1.0" encoding="UTF-8" standalone="no"?>
<svg width="24px" height="24px" viewBox="0 0 24 24" version="1.1" xmlns="http://www.w3.org/2000/svg" xmlns:xlink="http://www.w3.org/1999/xlink" xmlns:sketch="http://www.bohemiancoding.com/sketch/ns">
    <!-- Generator: Sketch 3.5.2 (25235) - http://www.bohemiancoding.com/sketch -->
    <title>notifications</title>
    <desc>Created with Sketch.</desc>
    <defs></defs>
    <g id="Page-1" stroke="none" stroke-width="1" fill="none" fill-rule="evenodd" sketch:type="MSPage">
        <g id="notifications" sketch:type="MSArtboardGroup" fill="#4E4E4E">
            <path d="M19.6328125,10.4921875 C19.6328125,11.3125041 19.6621091,12.0644497 19.7207031,12.7480469 C19.7792972,13.431644 19.8378903,14.0078102 19.8964844,14.4765625 C19.9550784,14.9453148 20.0917958,15.4140602 20.3066406,15.8828125 C20.5214854,16.3515648 20.6582028,16.6933583 20.7167969,16.9082031 C20.7753909,17.1230479 20.980467,17.4160138 21.3320312,17.7871094 C21.6835955,18.158205 21.8789061,18.3730466 21.9179688,18.4316406 C21.9570314,18.4902347 22.2207007,18.7148418 22.7089844,19.1054688 C23.1972681,19.4960957 23.4609373,19.7109373 23.5,19.75 L1,19.75 C1.11718809,19.6328119 1.33202969,19.4570324 1.64453125,19.2226562 C1.95703281,18.9882801 2.16210889,18.8222661 2.25976562,18.7246094 C2.35742236,18.6269526 2.53320186,18.4511731 2.78710938,18.1972656 C3.04101689,17.9433581 3.21679639,17.738282 3.31445312,17.5820312 C3.41210986,17.4257805 3.55859277,17.2011733 3.75390625,16.9082031 C3.94921973,16.6152329 4.08593711,16.3417981 4.1640625,16.0878906 C4.24218789,15.8339831 4.33984316,15.5019552 4.45703125,15.0917969 C4.57421934,14.6816386 4.65234355,14.2617209 4.69140625,13.8320312 C4.73046895,13.4023416 4.76953105,12.9042997 4.80859375,12.3378906 C4.84765645,11.7714815 4.8671875,11.1562533 4.8671875,10.4921875 C4.8671875,5.76560137 6.85935508,3.07031582 10.84375,2.40625 L10.84375,2.2890625 C10.84375,1.93749824 10.9804674,1.63476689 11.2539062,1.38085938 C11.5273451,1.12695186 11.859373,1 12.25,1 C12.640627,1 12.9726549,1.12695186 13.2460938,1.38085938 C13.5195326,1.63476689 13.65625,1.93749824 13.65625,2.2890625 L13.65625,2.40625 C17.6406449,2.99219043 19.6328125,5.68747598 19.6328125,10.4921875 L19.6328125,10.4921875 Z M12.25,23.5 C11.4687461,23.5 10.7851592,23.2558618 10.1992188,22.7675781 C9.61327832,22.2792944 9.28125039,21.6835973 9.203125,20.9804688 L15.296875,20.9804688 C15.2187496,21.6835973 14.8867217,22.2792944 14.3007812,22.7675781 C13.7148408,23.2558618 13.0312539,23.5 12.25,23.5 L12.25,23.5 Z" id="ios-bell---Ionicons" sketch:type="MSShapeGroup"></path>
        </g>
    </g>
</svg>