<?xml version="1.0" encoding="UTF-8" standalone="no"?>
<svg width="17px" height="17px" viewBox="0 0 17 17" version="1.1" xmlns="http://www.w3.org/2000/svg" xmlns:xlink="http://www.w3.org/1999/xlink" xmlns:sketch="http://www.bohemiancoding.com/sketch/ns">
    <!-- Generator: Sketch 3.5.2 (25235) - http://www.bohemiancoding.com/sketch -->
    <title>Search</title>
    <desc>Created with Sketch.</desc>
    <defs></defs>
    <g id="Page-1" stroke="none" stroke-width="1" fill="none" fill-rule="evenodd" sketch:type="MSPage">
        <g id="Artboard-5" sketch:type="MSArtboardGroup" transform="translate(-1.000000, 0.000000)" fill="#4E4E4E">
            <g id="Search" sketch:type="MSLayerGroup" transform="translate(1.000000, 0.000000)">
                <path d="M16.5,16.0117188 L15.5117188,17 L10.65625,12.1445312 C9.48176496,13.0898485 8.10677871,13.5625 6.53125,13.5625 C4.72655348,13.5625 3.18685533,12.9251366 1.91210938,11.6503906 C0.637363418,10.3756447 0,8.83594652 0,7.03125 C0,5.22655348 0.637363418,3.68685533 1.91210938,2.41210938 C3.18685533,1.13736342 4.72655348,0.5 6.53125,0.5 C8.33594652,0.5 9.87564467,1.13736342 11.1503906,2.41210938 C12.4251366,3.68685533 13.0625,5.22655348 13.0625,7.03125 C13.0625,8.57813273 12.5898485,9.93879621 11.6445312,11.1132812 L16.5,16.0117188 Z M2.40625,11.1992188 C3.52344309,12.3164118 4.89842934,12.875 6.53125,12.875 C8.13542469,12.875 9.51041094,12.3020891 10.65625,11.15625 C11.8020891,10.0104109 12.375,8.63542469 12.375,7.03125 C12.375,5.42707531 11.8020891,4.05208906 10.65625,2.90625 C9.51041094,1.76041094 8.13542469,1.1875 6.53125,1.1875 C4.92707531,1.1875 3.55208906,1.76041094 2.40625,2.90625 C1.26041094,4.05208906 0.6875,5.42707531 0.6875,7.03125 C0.6875,8.66407066 1.26041094,10.0533797 2.40625,11.1992188 L2.40625,11.1992188 Z" id="ios-search---Ionicons" sketch:type="MSShapeGroup"></path>
            </g>
        </g>
    </g>
</svg>