<?xml version="1.0" encoding="UTF-8" standalone="no"?>
<svg width="24px" height="24px" viewBox="0 0 24 24" version="1.1" xmlns="http://www.w3.org/2000/svg" xmlns:xlink="http://www.w3.org/1999/xlink">
    <!-- Generator: Sketch 3.7 (28169) - http://www.bohemiancoding.com/sketch -->
    <title>search</title>
    <desc>Created with Sketch.</desc>
    <defs></defs>
    <g id="Page-1" stroke="none" stroke-width="1" fill="none" fill-rule="evenodd">
        <g id="search" fill="#4E4E4E">
            <path d="M20.5,19.5117188 L19.5117188,20.5 L14.65625,15.6445312 C13.481765,16.5898485 12.1067787,17.0625 10.53125,17.0625 C8.72655348,17.0625 7.18685533,16.4251366 5.91210938,15.1503906 C4.63736342,13.8756447 4,12.3359465 4,10.53125 C4,8.72655348 4.63736342,7.18685533 5.91210938,5.91210938 C7.18685533,4.63736342 8.72655348,4 10.53125,4 C12.3359465,4 13.8756447,4.63736342 15.1503906,5.91210938 C16.4251366,7.18685533 17.0625,8.72655348 17.0625,10.53125 C17.0625,12.0781327 16.5898485,13.4387962 15.6445312,14.6132812 L20.5,19.5117188 Z M6.40625,14.6992188 C7.52344309,15.8164118 8.89842934,16.375 10.53125,16.375 C12.1354247,16.375 13.5104109,15.8020891 14.65625,14.65625 C15.8020891,13.5104109 16.375,12.1354247 16.375,10.53125 C16.375,8.92707531 15.8020891,7.55208906 14.65625,6.40625 C13.5104109,5.26041094 12.1354247,4.6875 10.53125,4.6875 C8.92707531,4.6875 7.55208906,5.26041094 6.40625,6.40625 C5.26041094,7.55208906 4.6875,8.92707531 4.6875,10.53125 C4.6875,12.1640707 5.26041094,13.5533797 6.40625,14.6992188 L6.40625,14.6992188 Z" id="ios-search---Ionicons"></path>
        </g>
    </g>
</svg>