<?xml version="1.0" encoding="UTF-8" standalone="no"?>
<svg width="18px" height="18px" viewBox="0 0 18 18" version="1.1" xmlns="http://www.w3.org/2000/svg" xmlns:xlink="http://www.w3.org/1999/xlink">
    <!-- Generator: Sketch 3.6.1 (26313) - http://www.bohemiancoding.com/sketch -->
    <title>toolbar-share</title>
    <desc>Created with Sketch.</desc>
    <defs></defs>
    <g id="Page-1" stroke="none" stroke-width="1" fill="none" fill-rule="evenodd">
        <g id="toolbar-share" fill="#585858">
            <path d="M2,14.875 L2,13.625 C2,11.3854055 2.63801445,9.61458984 3.9140625,8.3125 C5.21615234,6.95832656 7.07811289,6.22916719 9.5,6.125 L9.5,3 L17,8 L9.5,13 L9.5,9.875 C8.30207734,9.9010418 7.16927617,10.1614559 6.1015625,10.65625 C5.08593242,11.1250023 4.10937969,12.1275965 3.171875,13.6640625 L2.390625,14.875 L2,14.875 Z M10.125,6.75 C9.05728633,6.75 8.0937543,6.87369668 7.234375,7.12109375 C6.3749957,7.36849082 5.69140879,7.6809877 5.18359375,8.05859375 C4.67577871,8.4361998 4.23958516,8.85937266 3.875,9.328125 C3.51041484,9.79687734 3.25000078,10.272133 3.09375,10.7539062 C2.93749922,11.2356795 2.82031289,11.6653627 2.7421875,12.0429688 C2.66406211,12.4205748 2.625,12.739582 2.625,13 L2.625,13.3515625 C3.53646289,11.8150965 4.55858809,10.7473988 5.69140625,10.1484375 C6.82422441,9.54947617 8.30207422,9.25 10.125,9.25 L10.125,11.7890625 L15.90625,8 L10.125,4.2109375 L10.125,6.75 Z" id="share"></path>
        </g>
    </g>
</svg>