<?xml version="1.0" encoding="UTF-8" standalone="no"?>
<svg width="18px" height="18px" viewBox="0 0 18 18" version="1.1" xmlns="http://www.w3.org/2000/svg" xmlns:xlink="http://www.w3.org/1999/xlink">
    <!-- Generator: Sketch 3.6.1 (26313) - http://www.bohemiancoding.com/sketch -->
    <title>toolbar-rename</title>
    <desc>Created with Sketch.</desc>
    <defs></defs>
    <g id="Page-1" stroke="none" stroke-width="1" fill="none" fill-rule="evenodd">
        <g id="toolbar-rename" fill="#585858">
            <path d="M13.875,14.75 L13.875,6.625 L14.5,6 L14.5,15.375 L2,15.375 L2,3.5 L12,3.5 L11.375,4.125 L2.625,4.125 L2.625,14.75 L13.875,14.75 Z M8.796875,9.59375 L15.4765625,2.9140625 L15.90625,3.34375 L8.875,10.375 L7.625,10.375 L7.625,9.125 L14.65625,2.09375 L15.0859375,2.5234375 L8.40625,9.203125 L8.796875,9.59375 Z M16.84375,1.625 C16.9479172,1.78125078 17,1.91145781 17,2.015625 C17,2.11979219 16.9479172,2.24999922 16.84375,2.40625 L16.375,2.875 L15.5546875,2.0546875 L15.125,1.625 L15.59375,1.15625 C15.7500008,1.05208281 15.8802078,1 15.984375,1 C16.0885422,1 16.2187492,1.05208281 16.375,1.15625 L16.84375,1.625 Z" id="rename"></path>
        </g>
    </g>
</svg>