<?xml version="1.0" encoding="UTF-8" standalone="no"?>
<svg width="18px" height="18px" viewBox="0 0 18 18" version="1.1" xmlns="http://www.w3.org/2000/svg" xmlns:xlink="http://www.w3.org/1999/xlink">
    <!-- Generator: Sketch 3.6.1 (26313) - http://www.bohemiancoding.com/sketch -->
    <title>toolbar-delete</title>
    <desc>Created with Sketch.</desc>
    <defs></defs>
    <g id="Page-1" stroke="none" stroke-width="1" fill="none" fill-rule="evenodd">
        <g id="toolbar-delete" fill="#585858">
            <path d="M14.25,2.9140625 L14.25,3.5 L13.46875,3.5 L12.53125,14.8671875 C12.53125,15.1796891 12.420574,15.4466135 12.1992188,15.6679688 C11.9778635,15.889324 11.7109391,16 11.3984375,16 L5.890625,16 C5.57812344,16 5.31119902,15.889324 5.08984375,15.6679688 C4.86848848,15.4466135 4.7578125,15.1796891 4.7578125,14.8671875 L3.8203125,3.5 L3,3.5 L3,2.9140625 L6.125,2.9140625 L6.125,2.1328125 C6.125,1.82031094 6.23567598,1.55338652 6.45703125,1.33203125 C6.67838652,1.11067598 6.94531094,1 7.2578125,1 L9.9921875,1 C10.3046891,1 10.5716135,1.11067598 10.7929688,1.33203125 C11.014324,1.55338652 11.125,1.82031094 11.125,2.1328125 L11.125,2.9140625 L14.25,2.9140625 Z M6.7109375,2.1328125 L6.7109375,2.9140625 L10.5390625,2.9140625 L10.5390625,2.1328125 C10.5390625,1.76822734 10.3567727,1.5859375 9.9921875,1.5859375 L7.2578125,1.5859375 C6.89322734,1.5859375 6.7109375,1.76822734 6.7109375,2.1328125 L6.7109375,2.1328125 Z M11.984375,14.828125 L12.8828125,3.5 L4.40625,3.5 L5.3046875,14.828125 L5.3046875,14.8671875 C5.3046875,15.2317727 5.49999805,15.4140625 5.890625,15.4140625 L11.3984375,15.4140625 C11.7890645,15.4140625 11.984375,15.2317727 11.984375,14.8671875 L11.984375,14.828125 Z M8.3515625,14.1640625 L8.3515625,4.75 L8.8984375,4.75 L8.8984375,14.1640625 L8.3515625,14.1640625 Z M11.125,4.75 L10.6953125,14.1640625 L10.1484375,14.1640625 L10.5390625,4.75 L11.125,4.75 Z M6.671875,4.75 L7.1015625,14.1640625 L6.5546875,14.1640625 L6.125,4.75 L6.671875,4.75 Z" id="delete"></path>
        </g>
    </g>
</svg>